<?xml version="1.0" encoding="utf-8"?>
<!-- Generator: Adobe Illustrator 22.1.0, SVG Export Plug-In . SVG Version: 6.00 Build 0)  -->
<svg version="1.1" id="Слой_1" xmlns="http://www.w3.org/2000/svg" xmlns:xlink="http://www.w3.org/1999/xlink" x="0px" y="0px"
	 viewBox="0 0 608 608" style="enable-background:new 0 0 608 608;" xml:space="preserve">
<style type="text/css">
	.st0{fill:url(#path-2_1_);stroke:#6F6E6E;stroke-width:8;}
	.st1{fill:#2AB191;}
	.st2{fill:#4990E2;}
	.st3{fill:#EE6666;}
	.st4{opacity:0.1;}
	.st5{fill:url(#path-copy_1_);}
	.st6{fill:#DEECF1;}
	.st7{fill:#C6E2E7;}
	.st8{fill:#FED2A4;}
	.st9{fill:#FFBD86;}
	.st10{fill:#F6A96C;}
	.st11{fill:#979FEF;}
	.st12{fill:#7984EB;}
	.st13{fill:#EA9B58;}
	.st14{fill:#384949;}
</style>
<title>std-icon</title>
<g id="Слой_1_1_">
	<g id="Page-1">
		<g id="Group-2-Copy-31">
			<g id="path-copy-20">
				
					<linearGradient id="path-2_1_" gradientUnits="userSpaceOnUse" x1="7.4875" y1="700.0391" x2="7.4875" y2="699.0391" gradientTransform="matrix(600 0 0 -600 -4189 420029)">
					<stop  offset="0" style="stop-color:#FFFFFF"/>
					<stop  offset="1" style="stop-color:#FFFFFF"/>
				</linearGradient>
				<path id="path-2" class="st0" d="M555.8,555.8c47.7-47.8,47.7-120.8,47.7-252.3s0-204.5-47.7-252.3S435,3.5,303.5,3.5
					S99,3.5,51.2,51.2S3.5,172,3.5,303.5s0,204.5,47.7,252.3s120.8,47.7,252.3,47.7S508,603.5,555.8,555.8z"/>
			</g>
			<g id="Group-2">
				<g id="logosvg-animated-copy">
					<g id="Group">
						<g id="inner">
							<g id="_Группа_">
								<path id="Shape" class="st1" d="M413.4,303L413.4,303c-0.1-27,21.6-49,48.6-49.1c19.1-0.1,36.5,11,44.6,28.3v-48.4
									c-13.2-8.6-28.6-13.2-44.3-13.1c-45.4,0.1-82.2,37-82.1,82.4c0.1,26,12.4,50.4,33.2,65.9L413.4,303z"/>
								<path id="Shape-2" class="st2" d="M511.2,237v66c0.1,27-21.6,49-48.6,49.1c-19.1,0.1-36.5-11-44.6-28.3v48.4
									c13.2,8.6,28.6,13.1,44.4,13.1c45.4-0.1,82.2-36.9,82.1-82.3C544.4,277,532.1,252.5,511.2,237L511.2,237z"/>
							</g>
						</g>
						<g id="outer">
							<path id="Shape-3" class="st2" d="M411.1,233.6c-3.7-6.8-16.7-13.6-31.2-12.4v56.3C385.3,259.9,396.2,244.5,411.1,233.6z"/>
							<path id="Shape-4" class="st3" d="M513.5,372.6c3.7,6.8,16.6,13.6,31.2,12.4v-56.3C539.2,346.3,528.3,361.6,513.5,372.6z"/>
						</g>
					</g>
				</g>
				<g id="arrow-right-c" class="st4">
					<g id="Layer_1">
						<path id="Shape-5" d="M313.7,265.4l30.2,31.6c3.6,3.7,3.6,9.7,0,13.4l-30.2,31.9c-3.3,3.6-8.9,3.8-12.5,0.5
							c-0.2-0.2-0.3-0.3-0.5-0.5c-3.6-3.8-3.6-9.8,0-13.6l14.5-15.2h-65.3c-5.3-0.2-9.4-4.7-9.2-10c0.2-5,4.2-9,9.1-9.2h65.4
							L300.7,279c-3.6-3.8-3.6-9.8,0-13.6c3.4-3.6,9.1-3.7,12.7-0.3C313.5,265.2,313.6,265.3,313.7,265.4z"/>
					</g>
				</g>
			</g>
			
				<linearGradient id="path-copy_1_" gradientUnits="userSpaceOnUse" x1="7.4892" y1="700.0391" x2="7.4892" y2="699.0391" gradientTransform="matrix(600 0 0 -600 -4189 420029)">
				<stop  offset="0" style="stop-color:#FFFFFF;stop-opacity:0.2"/>
				<stop  offset="1" style="stop-color:#000000;stop-opacity:0.14"/>
			</linearGradient>
			<path id="path-copy" class="st5" d="M604.5,304.4c0-131.5,0-204.5-47.7-252.3S436,4.4,304.5,4.4S100,4.4,52.2,52.1
				S4.5,172.9,4.5,304.4s0,204.5,47.7,252.3s120.8,47.7,252.3,47.7s204.5,0,252.3-47.7S604.5,435.9,604.5,304.4z"/>
		</g>
	</g>
</g>
<g id="Слой_2">
	<path class="st6" d="M217.3,340.6v50.2H32.2v-50.2c0-5.8,3.9-11.1,10.2-13.7l39.1-16.3l6.2,13.4l6.2-18.5l5.9-2.5h49.9l18.3,7.6
		l6.2,23.6l6.2-18.5l26.8,11.1C213.3,329.4,217.3,334.7,217.3,340.6z"/>
	<path class="st7" d="M217.3,340.6v50.2h-92.6V303h24.9l18.3,7.6l6.2,23.6l6.2-18.5l26.8,11.1C213.3,329.4,217.3,334.7,217.3,340.6z
		"/>
	<path class="st8" d="M180.2,267.8c0,5.6-5.6,10.2-12.3,10.2v5.1c0,19.7-19.4,35.8-43.2,35.8s-43.2-16-43.2-35.8V278
		c-6.8,0-12.3-4.6-12.3-10.2s5.6-10.2,12.3-10.2l43.2-10.2l43.2,10.2C174.7,257.6,180.2,262.2,180.2,267.8z"/>
	<path class="st9" d="M180.2,267.8c0,5.6-5.6,10.2-12.3,10.2v5.1c0,19.7-19.4,35.8-43.2,35.8v-71.5l43.2,10.2
		C174.7,257.6,180.2,262.2,180.2,267.8z"/>
	<path class="st10" d="M143.2,283.1c0,8.5-8.3,15.3-18.5,15.3s-18.5-6.8-18.5-15.3h12.3c0,2.9,2.7,5.1,6.2,5.1
		c3.5,0,6.2-2.2,6.2-5.1H143.2z"/>
	<path class="st11" d="M118.5,370H93.9v-10.2h12.3v-5.1c0-8.5-8.3-15.3-18.5-15.3s-18.5,6.9-18.5,15.3v5.1h12.3V370H56.8v-15.3
		c0-14.1,13.8-25.6,30.8-25.6s30.9,11.5,30.9,25.6V370z"/>
	<path class="st11" d="M93.9,334.2v-28.7l-12.3,5.1v23.6H93.9z"/>
	<path class="st12" d="M180.2,344.4v-28.7l-12.3-5.1v33.8H180.2z"/>
	<path class="st13" d="M124.7,298.4v-10.2c3.5,0,6.2-2.2,6.2-5.1h12.3C143.2,291.6,134.9,298.4,124.7,298.4z"/>
	<path class="st6" d="M81.5,216.3h86.4v41.2H81.5V216.3z"/>
	<path class="st7" d="M124.7,216.3h43.2v41.2h-43.2V216.3z"/>
	<path class="st14" d="M174.1,370c-10.2,0-18.5-6.9-18.5-15.3s8.3-15.3,18.5-15.3s18.5,6.9,18.5,15.3S184.3,370,174.1,370z"/>
</g>
</svg>
